  0
SECTION
  2
HEADER
  0
ENDSEC
  0
SECTION
  2
TABLES
  0
TABLE
  2
LAYER
  70
    153
  0
LAYER
  2
Cube
 70
0
 62
15
  6
CONTINUOUS
  0
ENDTAB
  0
ENDSEC
  0
SECTION
  2
ENTITIES
  0
3DFACE
  8
Cube
 10
2.500000
 20
-0.747214
 30
2.000000
 11
3.888562
 21
-0.100000
 31
1.991344
 12
3.888562
 22
0.000000
 32
1.700000
 13
3.888562
 23
0.000000
 33
1.700000
 62
0
  0
3DFACE
  8
Cube
 10
2.500000
 20
-0.538416
 30
0.633431
 11
2.500000
 21
-0.747214
 31
2.000000
 12
3.888562
 22
0.000000
 32
1.700000
 13
3.888562
 23
0.000000
 33
1.700000
 62
0
  0
3DFACE
  8
Cube
 10
2.500000
 20
-0.538416
 30
0.633431
 11
3.888562
 21
0.000000
 31
1.700000
 12
2.500000
 22
0.538000
 32
0.633431
 13
2.500000
 23
0.538000
 33
0.633431
 62
0
  0
3DFACE
  8
Cube
 10
2.500000
 20
-0.538416
 30
0.633431
 11
3.888562
 21
0.000000
 31
1.700000
 12
3.888562
 22
0.000000
 32
1.700000
 13
3.888562
 23
0.000000
 33
1.700000
 62
0
  0
3DFACE
  8
Cube
 10
3.888562
 20
0.000000
 30
1.700000
 11
3.888562
 21
-0.100000
 31
1.991344
 12
3.888562
 22
0.100000
 32
1.991344
 13
3.888562
 23
0.100000
 33
1.991344
 62
0
  0
3DFACE
  8
Cube
 10
3.888562
 20
0.000000
 30
1.700000
 11
3.888562
 21
0.000000
 31
1.700000
 12
3.888562
 22
0.100000
 32
1.991344
 13
3.888562
 23
0.100000
 33
1.991344
 62
0
  0
3DFACE
  8
Cube
 10
3.888562
 20
-0.100000
 30
1.991344
 11
2.500000
 21
0.747000
 31
2.000000
 12
3.888562
 22
0.100000
 32
1.991344
 13
3.888562
 23
0.100000
 33
1.991344
 62
0
  0
3DFACE
  8
Cube
 10
2.500000
 20
-0.747214
 30
2.000000
 11
2.500000
 21
0.747000
 31
2.000000
 12
3.888562
 22
-0.100000
 32
1.991344
 13
3.888562
 23
-0.100000
 33
1.991344
 62
0
  0
3DFACE
  8
Cube
 10
2.500000
 20
0.538000
 30
0.633431
 11
3.888562
 21
0.000000
 31
1.700000
 12
3.888562
 22
0.100000
 32
1.991344
 13
3.888562
 23
0.100000
 33
1.991344
 62
0
  0
3DFACE
  8
Cube
 10
2.500000
 20
0.747000
 30
2.000000
 11
2.500000
 21
0.538000
 31
0.633431
 12
3.888562
 22
0.100000
 32
1.991344
 13
3.888562
 23
0.100000
 33
1.991344
 62
0
  0
3DFACE
  8
Cube
 10
-5.500000
 20
0.693775
 30
0.281525
 11
-5.500000
 21
0.693775
 31
2.000000
 12
-5.500000
 22
-0.693775
 32
2.000000
 13
-5.500000
 23
-0.693775
 33
2.000000
 62
0
  0
3DFACE
  8
Cube
 10
-5.500000
 20
-0.693775
 30
0.281525
 11
-5.500000
 21
0.693775
 31
0.281525
 12
-5.500000
 22
-0.693775
 32
2.000000
 13
-5.500000
 23
-0.693775
 33
2.000000
 62
0
  0
3DFACE
  8
Cube
 10
-5.500000
 20
0.693775
 30
0.281525
 11
-5.000000
 21
0.864029
 31
0.211143
 12
-5.000000
 22
0.864029
 32
2.000000
 13
-5.000000
 23
0.864029
 33
2.000000
 62
0
  0
3DFACE
  8
Cube
 10
-5.500000
 20
0.693775
 30
2.000000
 11
-5.500000
 21
0.693775
 31
0.281525
 12
-5.000000
 22
0.864029
 32
2.000000
 13
-5.000000
 23
0.864029
 33
2.000000
 62
0
  0
3DFACE
  8
Cube
 10
-5.500000
 20
-0.693775
 30
2.000000
 11
-5.500000
 21
0.693775
 31
2.000000
 12
-5.000000
 22
0.864029
 32
2.000000
 13
-5.000000
 23
0.864029
 33
2.000000
 62
0
  0
3DFACE
  8
Cube
 10
-5.000000
 20
-0.864029
 30
2.000000
 11
-5.500000
 21
-0.693775
 31
2.000000
 12
-5.000000
 22
0.864029
 32
2.000000
 13
-5.000000
 23
0.864029
 33
2.000000
 62
0
  0
3DFACE
  8
Cube
 10
-5.500000
 20
-0.693775
 30
2.000000
 11
-5.000000
 21
-0.864029
 31
2.000000
 12
-5.000000
 22
-0.864029
 32
0.211143
 13
-5.000000
 23
-0.864029
 33
0.211143
 62
0
  0
3DFACE
  8
Cube
 10
-5.500000
 20
-0.693775
 30
0.281525
 11
-5.500000
 21
-0.693775
 31
2.000000
 12
-5.000000
 22
-0.864029
 32
0.211143
 13
-5.000000
 23
-0.864029
 33
0.211143
 62
0
  0
3DFACE
  8
Cube
 10
-5.500000
 20
-0.693775
 30
0.281525
 11
-5.000000
 21
0.864029
 31
0.211143
 12
-5.500000
 22
0.693775
 32
0.281525
 13
-5.500000
 23
0.693775
 33
0.281525
 62
0
  0
3DFACE
  8
Cube
 10
-5.000000
 20
-0.864029
 30
0.211143
 11
-5.000000
 21
0.864029
 31
0.211143
 12
-5.500000
 22
-0.693775
 32
0.281525
 13
-5.500000
 23
-0.693775
 33
0.281525
 62
0
  0
3DFACE
  8
Cube
 10
1.000000
 20
0.900000
 30
0.105572
 11
1.500000
 21
0.794000
 31
0.219941
 12
1.500000
 22
0.900000
 32
2.000000
 13
1.500000
 23
0.900000
 33
2.000000
 62
0
  0
3DFACE
  8
Cube
 10
1.000000
 20
0.950000
 30
2.000000
 11
1.000000
 21
0.900000
 31
0.105572
 12
1.500000
 22
0.900000
 32
2.000000
 13
1.500000
 23
0.900000
 33
2.000000
 62
0
  0
3DFACE
  8
Cube
 10
1.500000
 20
-0.900000
 30
2.000000
 11
1.000000
 21
0.950000
 31
2.000000
 12
1.500000
 22
0.900000
 32
2.000000
 13
1.500000
 23
0.900000
 33
2.000000
 62
0
  0
3DFACE
  8
Cube
 10
1.000000
 20
-0.950000
 30
2.000000
 11
1.000000
 21
0.950000
 31
2.000000
 12
1.500000
 22
-0.900000
 32
2.000000
 13
1.500000
 23
-0.900000
 33
2.000000
 62
0
  0
3DFACE
  8
Cube
 10
1.000000
 20
-0.950000
 30
2.000000
 11
1.500000
 21
-0.900000
 31
2.000000
 12
1.500000
 22
-0.793988
 32
0.219941
 13
1.500000
 23
-0.793988
 33
0.219941
 62
0
  0
3DFACE
  8
Cube
 10
1.000000
 20
-0.900000
 30
0.105572
 11
1.000000
 21
-0.950000
 31
2.000000
 12
1.500000
 22
-0.793988
 32
0.219941
 13
1.500000
 23
-0.793988
 33
0.219941
 62
0
  0
3DFACE
  8
Cube
 10
1.500000
 20
-0.793988
 30
0.219941
 11
1.500000
 21
0.794000
 31
0.219941
 12
1.000000
 22
0.900000
 32
0.105572
 13
1.000000
 23
0.900000
 33
0.105572
 62
0
  0
3DFACE
  8
Cube
 10
1.000000
 20
-0.900000
 30
0.105572
 11
1.500000
 21
-0.793988
 31
0.219941
 12
1.000000
 22
0.900000
 32
0.105572
 13
1.000000
 23
0.900000
 33
0.105572
 62
0
  0
3DFACE
  8
Cube
 10
1.500000
 20
0.794000
 30
0.219941
 11
2.000000
 21
0.680000
 31
0.387096
 12
2.000000
 22
0.870000
 32
2.000000
 13
2.000000
 23
0.870000
 33
2.000000
 62
0
  0
3DFACE
  8
Cube
 10
1.500000
 20
0.900000
 30
2.000000
 11
1.500000
 21
0.794000
 31
0.219941
 12
2.000000
 22
0.870000
 32
2.000000
 13
2.000000
 23
0.870000
 33
2.000000
 62
0
  0
3DFACE
  8
Cube
 10
2.000000
 20
-0.870381
 30
2.000000
 11
1.500000
 21
0.900000
 31
2.000000
 12
2.000000
 22
0.870000
 32
2.000000
 13
2.000000
 23
0.870000
 33
2.000000
 62
0
  0
3DFACE
  8
Cube
 10
1.500000
 20
-0.900000
 30
2.000000
 11
1.500000
 21
0.900000
 31
2.000000
 12
2.000000
 22
-0.870381
 32
2.000000
 13
2.000000
 23
-0.870381
 33
2.000000
 62
0
  0
3DFACE
  8
Cube
 10
1.500000
 20
-0.900000
 30
2.000000
 11
2.000000
 21
-0.870381
 31
2.000000
 12
2.000000
 22
-0.680000
 32
0.387096
 13
2.000000
 23
-0.680000
 33
0.387096
 62
0
  0
3DFACE
  8
Cube
 10
1.500000
 20
-0.793988
 30
0.219941
 11
1.500000
 21
-0.900000
 31
2.000000
 12
2.000000
 22
-0.680000
 32
0.387096
 13
2.000000
 23
-0.680000
 33
0.387096
 62
0
  0
3DFACE
  8
Cube
 10
2.000000
 20
-0.680000
 30
0.387096
 11
2.000000
 21
0.680000
 31
0.387096
 12
1.500000
 22
0.794000
 32
0.219941
 13
1.500000
 23
0.794000
 33
0.219941
 62
0
  0
3DFACE
  8
Cube
 10
1.500000
 20
-0.793988
 30
0.219941
 11
2.000000
 21
-0.680000
 31
0.387096
 12
1.500000
 22
0.794000
 32
0.219941
 13
1.500000
 23
0.794000
 33
0.219941
 62
0
  0
3DFACE
  8
Cube
 10
2.000000
 20
0.680000
 30
0.387096
 11
2.500000
 21
0.538000
 31
0.633431
 12
2.500000
 22
0.747000
 32
2.000000
 13
2.500000
 23
0.747000
 33
2.000000
 62
0
  0
3DFACE
  8
Cube
 10
2.000000
 20
0.870000
 30
2.000000
 11
2.000000
 21
0.680000
 31
0.387096
 12
2.500000
 22
0.747000
 32
2.000000
 13
2.500000
 23
0.747000
 33
2.000000
 62
0
  0
3DFACE
  8
Cube
 10
2.500000
 20
-0.747214
 30
2.000000
 11
2.000000
 21
0.870000
 31
2.000000
 12
2.500000
 22
0.747000
 32
2.000000
 13
2.500000
 23
0.747000
 33
2.000000
 62
0
  0
3DFACE
  8
Cube
 10
2.000000
 20
-0.870381
 30
2.000000
 11
2.000000
 21
0.870000
 31
2.000000
 12
2.500000
 22
-0.747214
 32
2.000000
 13
2.500000
 23
-0.747214
 33
2.000000
 62
0
  0
3DFACE
  8
Cube
 10
2.000000
 20
-0.870381
 30
2.000000
 11
2.500000
 21
-0.747214
 31
2.000000
 12
2.500000
 22
-0.538416
 32
0.633431
 13
2.500000
 23
-0.538416
 33
0.633431
 62
0
  0
3DFACE
  8
Cube
 10
2.000000
 20
-0.680000
 30
0.387096
 11
2.000000
 21
-0.870381
 31
2.000000
 12
2.500000
 22
-0.538416
 32
0.633431
 13
2.500000
 23
-0.538416
 33
0.633431
 62
0
  0
3DFACE
  8
Cube
 10
2.500000
 20
-0.538416
 30
0.633431
 11
2.500000
 21
0.538000
 31
0.633431
 12
2.000000
 22
0.680000
 32
0.387096
 13
2.000000
 23
0.680000
 33
0.387096
 62
0
  0
3DFACE
  8
Cube
 10
2.000000
 20
-0.680000
 30
0.387096
 11
2.500000
 21
-0.538416
 31
0.633431
 12
2.000000
 22
0.680000
 32
0.387096
 13
2.000000
 23
0.680000
 33
0.387096
 62
0
  0
3DFACE
  8
Cube
 10
-1.000000
 20
-1.000000
 30
2.000000
 11
1.000000
 21
-0.950000
 31
2.000000
 12
1.000000
 22
-0.900000
 32
0.105572
 13
1.000000
 23
-0.900000
 33
0.105572
 62
0
  0
3DFACE
  8
Cube
 10
-1.000000
 20
-1.000000
 30
0.000000
 11
-1.000000
 21
-1.000000
 31
2.000000
 12
1.000000
 22
-0.900000
 32
0.105572
 13
1.000000
 23
-0.900000
 33
0.105572
 62
0
  0
3DFACE
  8
Cube
 10
1.000000
 20
-0.950000
 30
2.000000
 11
-1.000000
 21
1.000000
 31
2.000000
 12
1.000000
 22
0.950000
 32
2.000000
 13
1.000000
 23
0.950000
 33
2.000000
 62
0
  0
3DFACE
  8
Cube
 10
-1.000000
 20
-1.000000
 30
2.000000
 11
-1.000000
 21
1.000000
 31
2.000000
 12
1.000000
 22
-0.950000
 32
2.000000
 13
1.000000
 23
-0.950000
 33
2.000000
 62
0
  0
3DFACE
  8
Cube
 10
-1.000000
 20
1.000000
 30
0.000000
 11
1.000000
 21
0.900000
 31
0.105572
 12
1.000000
 22
0.950000
 32
2.000000
 13
1.000000
 23
0.950000
 33
2.000000
 62
0
  0
3DFACE
  8
Cube
 10
-1.000000
 20
1.000000
 30
2.000000
 11
-1.000000
 21
1.000000
 31
0.000000
 12
1.000000
 22
0.950000
 32
2.000000
 13
1.000000
 23
0.950000
 33
2.000000
 62
0
  0
3DFACE
  8
Cube
 10
1.000000
 20
-0.900000
 30
0.105572
 11
1.000000
 21
0.900000
 31
0.105572
 12
-1.000000
 22
1.000000
 32
0.000000
 13
-1.000000
 23
1.000000
 33
0.000000
 62
0
  0
3DFACE
  8
Cube
 10
-1.000000
 20
-1.000000
 30
0.000000
 11
1.000000
 21
-0.900000
 31
0.105572
 12
-1.000000
 22
1.000000
 32
0.000000
 13
-1.000000
 23
1.000000
 33
0.000000
 62
0
  0
3DFACE
  8
Cube
 10
-3.000000
 20
-1.000000
 30
2.000000
 11
-1.000000
 21
-1.000000
 31
2.000000
 12
-1.000000
 22
-1.000000
 32
0.000000
 13
-1.000000
 23
-1.000000
 33
0.000000
 62
0
  0
3DFACE
  8
Cube
 10
-3.000000
 20
-1.000000
 30
0.070381
 11
-3.000000
 21
-1.000000
 31
2.000000
 12
-1.000000
 22
-1.000000
 32
0.000000
 13
-1.000000
 23
-1.000000
 33
0.000000
 62
0
  0
3DFACE
  8
Cube
 10
-3.000000
 20
-1.000000
 30
2.000000
 11
-3.000000
 21
1.000000
 31
2.000000
 12
-1.000000
 22
1.000000
 32
2.000000
 13
-1.000000
 23
1.000000
 33
2.000000
 62
0
  0
3DFACE
  8
Cube
 10
-1.000000
 20
-1.000000
 30
2.000000
 11
-3.000000
 21
-1.000000
 31
2.000000
 12
-1.000000
 22
1.000000
 32
2.000000
 13
-1.000000
 23
1.000000
 33
2.000000
 62
0
  0
3DFACE
  8
Cube
 10
-3.000000
 20
1.000000
 30
0.070381
 11
-1.000000
 21
1.000000
 31
0.000000
 12
-1.000000
 22
1.000000
 32
2.000000
 13
-1.000000
 23
1.000000
 33
2.000000
 62
0
  0
3DFACE
  8
Cube
 10
-3.000000
 20
1.000000
 30
2.000000
 11
-3.000000
 21
1.000000
 31
0.070381
 12
-1.000000
 22
1.000000
 32
2.000000
 13
-1.000000
 23
1.000000
 33
2.000000
 62
0
  0
3DFACE
  8
Cube
 10
-1.000000
 20
-1.000000
 30
0.000000
 11
-1.000000
 21
1.000000
 31
0.000000
 12
-3.000000
 22
1.000000
 32
0.070381
 13
-3.000000
 23
1.000000
 33
0.070381
 62
0
  0
3DFACE
  8
Cube
 10
-3.000000
 20
-1.000000
 30
0.070381
 11
-1.000000
 21
-1.000000
 31
0.000000
 12
-3.000000
 22
1.000000
 32
0.070381
 13
-3.000000
 23
1.000000
 33
0.070381
 62
0
  0
3DFACE
  8
Cube
 10
-5.000000
 20
-0.864029
 30
2.000000
 11
-3.000000
 21
-1.000000
 31
2.000000
 12
-3.000000
 22
-1.000000
 32
0.070381
 13
-3.000000
 23
-1.000000
 33
0.070381
 62
0
  0
3DFACE
  8
Cube
 10
-5.000000
 20
-0.864029
 30
0.211143
 11
-5.000000
 21
-0.864029
 31
2.000000
 12
-3.000000
 22
-1.000000
 32
0.070381
 13
-3.000000
 23
-1.000000
 33
0.070381
 62
0
  0
3DFACE
  8
Cube
 10
-5.000000
 20
-0.864029
 30
2.000000
 11
-5.000000
 21
0.864029
 31
2.000000
 12
-3.000000
 22
1.000000
 32
2.000000
 13
-3.000000
 23
1.000000
 33
2.000000
 62
0
  0
3DFACE
  8
Cube
 10
-3.000000
 20
-1.000000
 30
2.000000
 11
-5.000000
 21
-0.864029
 31
2.000000
 12
-3.000000
 22
1.000000
 32
2.000000
 13
-3.000000
 23
1.000000
 33
2.000000
 62
0
  0
3DFACE
  8
Cube
 10
-5.000000
 20
0.864029
 30
0.211143
 11
-3.000000
 21
1.000000
 31
0.070381
 12
-3.000000
 22
1.000000
 32
2.000000
 13
-3.000000
 23
1.000000
 33
2.000000
 62
0
  0
3DFACE
  8
Cube
 10
-5.000000
 20
0.864029
 30
2.000000
 11
-5.000000
 21
0.864029
 31
0.211143
 12
-3.000000
 22
1.000000
 32
2.000000
 13
-3.000000
 23
1.000000
 33
2.000000
 62
0
  0
3DFACE
  8
Cube
 10
-5.000000
 20
-0.864029
 30
0.211143
 11
-3.000000
 21
1.000000
 31
0.070381
 12
-5.000000
 22
0.864029
 32
0.211143
 13
-5.000000
 23
0.864029
 33
0.211143
 62
0
  0
3DFACE
  8
Cube
 10
-3.000000
 20
-1.000000
 30
0.070381
 11
-3.000000
 21
1.000000
 31
0.070381
 12
-5.000000
 22
-0.864029
 32
0.211143
 13
-5.000000
 23
-0.864029
 33
0.211143
 62
0
 0
ENDSEC
 0
EOF
